<svg width="1440" height="897" viewBox="0 0 1440 897" fill="none" xmlns="http://www.w3.org/2000/svg">
<rect width="2800.21" height="1128.04" fill="black" fill-opacity="0" transform="translate(-769)"/>
<rect width="2800.21" height="1128.04" fill="black" fill-opacity="0" transform="translate(-769)"/>
<path d="M2031.2 0H-769V938H2031.2V0Z" fill="url(#paint0_linear)"/>
<rect width="2800.01" height="1128.04" fill="black" fill-opacity="0" transform="translate(-768.8)"/>
<rect width="2800.01" height="1128.04" fill="black" fill-opacity="0" transform="translate(-768.8)"/>
<path d="M-169.17 879.45C-40.0001 844 66.0599 801.88 189.2 780.83C397.97 745.13 596.37 872.74 922.2 870.34C1183.2 868.42 1342.2 811.6 1430.86 782.03C1601.39 712.61 1912 546 2031.2 436V1127.78H-768.8V945.84C-664 945.84 -422.32 948.92 -169.17 879.45Z" fill="url(#paint1_linear)"/>
<path d="M499 1128C1069.2 937.26 1085.47 563 1430.88 341.67C1596.85 235.34 1866 234 2027 282L2031.21 1127.78L499 1128Z" fill="url(#paint2_linear)"/>
<path d="M-768.8 940C-664 940 -408 940 -216 892C-40.4601 848.12 53.76 802.14 176.89 781.09C385.66 745.39 596.38 872.74 922.18 870.34C1183.18 868.42 1342.18 811.6 1430.84 782.03C1601.39 712.61 1912 546 2031.2 436" stroke="url(#paint3_linear)"/>
<path d="M-169.17 1113.2C600.63 1113.2 920.83 583.35 1430.83 491.93C1687.98 447.99 1870.56 541.59 2031.2 563.93V1127.82H-768.8V986.07C-647.89 1038.85 -449.87 1113.2 -169.17 1113.2Z" fill="url(#paint4_linear)"/>
<path fill-rule="evenodd" clip-rule="evenodd" d="M1430.93 342.2H1430.83H1431.03H1430.93Z" stroke="url(#paint5_linear)"/>
<path d="M-169.17 920.19C77.98 920.19 420.21 785.19 630.83 770.35C914.7 750.36 1144 910 1663.06 818.45C1825.71 789.77 2031.2 676 2031.2 676V1127.78H-768.8V968C-768.8 968 -458 920.19 -169.17 920.19Z" fill="url(#paint6_linear)"/>
<path fill-rule="evenodd" clip-rule="evenodd" d="M1425.76 493.37L1430.65 491.47L1430.92 492.47L1425.76 493.37ZM-166.49 1112.7H-169.16L-168.98 1113.7L-166.49 1112.7Z" stroke="url(#paint7_linear)"/>
<path d="M-384.17 0H-91.17L404.52 1128.04H111.52L-384.17 0Z" fill="url(#paint8_linear)"/>
<path d="M549.83 0H842.83L1338.52 1128.04L1045.4 1127.79L549.83 0Z" fill="url(#paint9_linear)"/>
<path d="M-147.17 0H259.18L754.87 1128.04H348.52L-147.17 0Z" fill="url(#paint10_linear)"/>
<path d="M499 1128C1069.2 937.26 1085.47 563 1430.88 341.67C1596.85 235.34 1866 234 2027 282" stroke="url(#paint11_linear)"/>
<path d="M440.31 987.52C819.31 824.86 1080.18 554.78 1430.83 491.93C1687.98 447.99 1870.56 541.59 2031.2 563.93" stroke="url(#paint12_linear)"/>
<path d="M-768.8 860C-768.8 860 -458 920.19 -169.17 920.19C77.9799 920.19 420.21 785.19 630.83 770.35C914.7 750.36 1144 910 1663.06 818.45C1825.71 789.77 2031.2 676 2031.2 676" stroke="url(#paint13_linear)"/>
<path d="M804.83 0H900.85L1396.43 1127.79L1299.78 1126.37L804.83 0Z" fill="url(#paint14_linear)"/>
<defs>
<linearGradient id="paint0_linear" x1="631.1" y1="3.49" x2="631.1" y2="933.18" gradientUnits="userSpaceOnUse">
<stop stop-color="#2776FB"/>
<stop offset="1" stop-color="#2E4BE0"/>
</linearGradient>
<linearGradient id="paint1_linear" x1="600.44" y1="724.92" x2="689.4" y2="889.68" gradientUnits="userSpaceOnUse">
<stop stop-color="#73B9FF" stop-opacity="0.0980392"/>
<stop offset="1" stop-color="white" stop-opacity="0"/>
</linearGradient>
<linearGradient id="paint2_linear" x1="1103.57" y1="510.94" x2="1399.79" y2="871.6" gradientUnits="userSpaceOnUse">
<stop stop-color="#73B9FF" stop-opacity="0.0980392"/>
<stop offset="1" stop-color="white" stop-opacity="0"/>
</linearGradient>
<linearGradient id="paint3_linear" x1="-768.8" y1="688.07" x2="2031.54" y2="688.07" gradientUnits="userSpaceOnUse">
<stop stop-color="white" stop-opacity="0"/>
<stop offset="0.11" stop-color="white" stop-opacity="0"/>
<stop offset="0.33" stop-color="white"/>
<stop offset="1" stop-color="white" stop-opacity="0"/>
</linearGradient>
<linearGradient id="paint4_linear" x1="620.76" y1="822.23" x2="773.25" y2="1166.99" gradientUnits="userSpaceOnUse">
<stop stop-color="#73B9FF" stop-opacity="0.0980392"/>
<stop offset="1" stop-color="white" stop-opacity="0"/>
</linearGradient>
<linearGradient id="paint5_linear" x1="-nan" y1="-nan" x2="-nan" y2="-nan" gradientUnits="userSpaceOnUse">
<stop stop-color="white" stop-opacity="0"/>
<stop offset="0.86" stop-color="white"/>
<stop offset="1" stop-color="white" stop-opacity="0"/>
</linearGradient>
<linearGradient id="paint6_linear" x1="584.74" y1="776.81" x2="662.75" y2="986.83" gradientUnits="userSpaceOnUse">
<stop stop-color="#73B9FF" stop-opacity="0.0980392"/>
<stop offset="1" stop-color="white" stop-opacity="0"/>
</linearGradient>
<linearGradient id="paint7_linear" x1="325.97" y1="812.494" x2="1414.03" y2="800.05" gradientUnits="userSpaceOnUse">
<stop stop-color="white" stop-opacity="0"/>
<stop offset="0.92" stop-color="white"/>
<stop offset="1" stop-color="white" stop-opacity="0"/>
</linearGradient>
<linearGradient id="paint8_linear" x1="-250.336" y1="-6.17" x2="104.474" y2="780.98" gradientUnits="userSpaceOnUse">
<stop stop-color="#73B9FF" stop-opacity="0.0784314"/>
<stop offset="1" stop-color="white" stop-opacity="0"/>
</linearGradient>
<linearGradient id="paint9_linear" x1="683.66" y1="-6.17" x2="1038.47" y2="780.98" gradientUnits="userSpaceOnUse">
<stop stop-color="#73B9FF" stop-opacity="0.0784314"/>
<stop offset="1" stop-color="white" stop-opacity="0"/>
</linearGradient>
<linearGradient id="paint10_linear" x1="4.87297" y1="-6.17001" x2="408.424" y2="780.98" gradientUnits="userSpaceOnUse">
<stop stop-color="#73B9FF" stop-opacity="0.0784314"/>
<stop offset="1" stop-color="white" stop-opacity="0"/>
</linearGradient>
<linearGradient id="paint11_linear" x1="498.8" y1="689.83" x2="2027.14" y2="689.83" gradientUnits="userSpaceOnUse">
<stop stop-color="white" stop-opacity="0"/>
<stop offset="0.17" stop-color="white" stop-opacity="0"/>
<stop offset="0.29" stop-color="white" stop-opacity="0.0784314"/>
<stop offset="0.54" stop-color="white" stop-opacity="0.286275"/>
<stop offset="0.77" stop-color="white" stop-opacity="0.498039"/>
<stop offset="1" stop-color="white" stop-opacity="0"/>
</linearGradient>
<linearGradient id="paint12_linear" x1="440.11" y1="733.92" x2="2031.27" y2="733.92" gradientUnits="userSpaceOnUse">
<stop stop-color="white" stop-opacity="0"/>
<stop offset="0.12" stop-color="white" stop-opacity="0.0784314"/>
<stop offset="0.36" stop-color="white" stop-opacity="0.286275"/>
<stop offset="0.7" stop-color="white" stop-opacity="0.619608"/>
<stop offset="0.77" stop-color="white" stop-opacity="0.698039"/>
<stop offset="1" stop-color="white" stop-opacity="0"/>
</linearGradient>
<linearGradient id="paint13_linear" x1="-768.89" y1="798.13" x2="2031.45" y2="798.13" gradientUnits="userSpaceOnUse">
<stop stop-color="white" stop-opacity="0"/>
<stop offset="0.15" stop-color="white" stop-opacity="0"/>
<stop offset="0.45" stop-color="white"/>
<stop offset="1" stop-color="white" stop-opacity="0"/>
</linearGradient>
<linearGradient id="paint14_linear" x1="898.45" y1="-6.17" x2="1168.56" y2="780.98" gradientUnits="userSpaceOnUse">
<stop stop-color="#73B9FF" stop-opacity="0.0784314"/>
<stop offset="1" stop-color="white" stop-opacity="0"/>
</linearGradient>
</defs>
</svg>
